<svg width="68" height="67" viewBox="0 0 68 67" fill="none" xmlns="http://www.w3.org/2000/svg">
<g id="Group 33">
<path id="Rectangle 2" d="M0 3C0 1.34315 1.34315 0 3 0H7.19231H19.095C19.4394 0 19.7811 0.0592851 20.1054 0.175258L24.3562 1.6957C24.6804 1.81167 25.0222 1.87096 25.3665 1.87096H62.3846C64.0415 1.87096 65.3846 3.2141 65.3846 4.87096V61.2362C65.3846 62.893 64.0415 64.2362 62.3846 64.2362H3C1.34315 64.2362 0 62.893 0 61.2362V3Z" fill="#243E36"/>
<path id="Rectangle 3" d="M2.61538 12.9784C2.61538 11.3216 3.95853 9.97843 5.61538 9.97843H17L23.3787 5.00052C23.9059 4.58905 24.5556 4.36556 25.2244 4.36556H65C66.6569 4.36556 68 5.70871 68 7.36556V63.7308C68 65.3876 66.6568 66.7308 65 66.7308H5.61538C3.95853 66.7308 2.61538 65.3876 2.61538 63.7308V20.5805V12.9784Z" fill="#84A98C"/>
<g id="Group 1">
<path id="Line 1" d="M20.0308 40.5065L31.0158 50.9841" stroke="#243E36" stroke-width="2" stroke-linecap="round" stroke-linejoin="round"/>
<path id="Line 2" d="M56.2308 26.8727L31.0299 50.9098" stroke="#243E36" stroke-width="2" stroke-linecap="round"/>
</g>
</g>
</svg>
